<svg width="1706" height="2522" viewBox="0 0 1706 2522" fill="none" xmlns="http://www.w3.org/2000/svg">
<path d="M821.5 601L886.5 1111L753 1123.5V761C750 672.5 749.3 495.2 770.5 494C791.7 492.8 813.333 564.833 821.5 601Z" fill="url(#paint0_linear_2854_156)"/>
<path d="M932.878 383.858C931.861 376.175 921.607 374.282 917.914 381.095L805.663 588.182C804.012 591.229 800.586 592.866 797.178 592.237L565.539 549.473C557.918 548.066 552.949 557.234 558.288 562.851L720.552 733.602C722.939 736.114 723.437 739.878 721.786 742.925L609.535 950.012C605.842 956.825 613.025 964.384 620.017 961.042L832.553 859.485C835.68 857.991 839.413 858.68 841.801 861.192L1004.06 1031.94C1009.4 1037.56 1018.81 1033.06 1017.79 1025.38L986.885 791.865C986.43 788.43 988.24 785.092 991.367 783.597L1203.9 682.04C1210.89 678.699 1209.53 668.361 1201.91 666.954L970.266 624.191C966.858 623.562 964.243 620.81 963.788 617.374L932.878 383.858Z" fill="url(#paint1_radial_2854_156)"/>
<path d="M360.503 1623.5C353.303 1740.3 425.17 2270.83 462.003 2521.5H1057.5C1039.17 2372.5 1000.2 2056.5 991 1984.5C981.8 1912.5 992.5 1879.5 999 1872L1295.5 1433.5C1300 1422.33 1300.6 1398.5 1267 1392.5C1225 1385 1189 1404 1149.5 1437.5C1110 1471 1015 1575 989.5 1585.5C964 1596 945 1572 939.5 1553.5C935.1 1538.7 921 1406.67 914.5 1342.5L1031 1328.5C1100.2 1318.5 1106.17 1269.33 1100.5 1246H904L899.5 1208.5C988.499 1203.5 1044.1 1197.6 1116.5 1188C1188.9 1178.4 1190 1123.67 1181.5 1097.5L759.004 1101.5C794 1047 937.003 823.5 944.003 782C955.609 713.201 918.17 694 898.003 693C815.003 803.5 632.003 1045.8 564.003 1131C479.003 1237.5 369.503 1477.5 360.503 1623.5Z" fill="url(#paint2_linear_2854_156)"/>
<path d="M697.5 1658C737.1 1761.2 695.333 1868 669.5 1908.5L457.5 2177C387.333 2148.17 367.7 1802 358.5 1722C347 1622 354 1506 394 1407.5C426 1328.7 529 1171.5 587 1100H1047C1094.83 1096.17 1189.5 1097.3 1185.5 1132.5C1181.5 1167.7 1119.5 1186.17 1089 1191L769 1217V1245H979C1017.83 1242.83 1096.3 1244.7 1099.5 1269.5C1102.7 1294.3 1080 1322.5 1025 1332L629 1371L561.5 1520C590.334 1523 657.9 1554.8 697.5 1658Z" fill="url(#paint3_linear_2854_156)"/>
<path d="M697.5 1658C737.1 1761.2 695.333 1868 669.5 1908.5L457.5 2177C387.333 2148.17 367.7 1802 358.5 1722C347 1622 354 1506 394 1407.5C426 1328.7 529 1171.5 587 1100H1047C1094.83 1096.17 1189.5 1097.3 1185.5 1132.5C1181.5 1167.7 1119.5 1186.17 1089 1191L769 1217V1245H979C1017.83 1242.83 1096.3 1244.7 1099.5 1269.5C1102.7 1294.3 1080 1322.5 1025 1332L629 1371L561.5 1520C590.334 1523 657.9 1554.8 697.5 1658Z" fill="url(#paint4_linear_2854_156)"/>
<path d="M565.138 1523.98C564.499 1523.73 563.971 1523.25 563.675 1522.63C563.378 1522.01 563.338 1521.3 563.563 1520.65C563.787 1520.01 564.26 1519.47 564.878 1519.17C565.497 1518.87 566.208 1518.82 566.862 1519.02V1519.02C575.203 1521.63 583.189 1525.3 590.857 1529.43C658.503 1567.76 711.647 1637.41 719.169 1717.52C719.649 1722.83 719.917 1728.05 719.984 1733.4C721.611 1805.44 705.243 1882.85 656.462 1937.96C651.116 1944.64 645.64 1951.22 640.652 1957.98C640.246 1958.53 639.645 1958.92 638.967 1959.04C638.29 1959.16 637.593 1959.02 637.029 1958.63C636.464 1958.24 636.074 1957.65 635.943 1956.97C635.812 1956.3 635.952 1955.6 636.319 1955.02C636.319 1955.02 636.319 1955.02 636.319 1955.02C640.962 1947.73 646.046 1940.76 650.937 1933.8C695.179 1876.77 707.611 1804.36 706.016 1733.6C705.934 1728.61 705.674 1723.74 705.226 1718.78C698.342 1644.42 650.527 1576.56 587.392 1535.41C580.266 1530.99 572.828 1526.98 565.138 1523.98Z" fill="#6B29A5"/>
<path d="M1305 1376.5C1288 1376.5 1267 1391.5 1251.5 1409.5C1236 1427.5 1221.5 1451.5 1223 1477C1224.2 1497.4 1239.83 1505.17 1247.5 1506.5C1272 1476.5 1317.5 1401.5 1321.5 1393C1325.5 1384.5 1322 1376.5 1305 1376.5ZM1124 1246.5C1125.6 1236.9 1114.33 1235.83 1108.5 1236.5C1043.5 1236.5 1010.9 1239.16 1001.5 1240.5C994.499 1241.5 981.499 1246.5 993.499 1267.5C1005.5 1288.5 1035 1286.5 1076 1281.5C1117 1276.5 1122 1258.5 1124 1246.5ZM1219 1101.5C1219.8 1091.9 1210 1091.17 1205 1092C1147.5 1092 1087.5 1096.5 1082 1097C1076.5 1097.5 1077 1104.5 1077.5 1110C1078 1115.5 1081.5 1130 1099.5 1137.5C1117.5 1145 1168.5 1138.5 1187.5 1133C1206.5 1127.5 1218 1113.5 1219 1101.5ZM919.999 679C917.499 669 906.999 675.5 898.999 683.5C890.999 691.5 841.999 760.5 836.499 770C832.099 777.6 833.665 782.833 834.999 784.5C858.999 804.5 886.999 786.5 907.499 756C927.999 725.5 922.499 689 919.999 679Z" fill="url(#paint5_linear_2854_156)"/>
<path d="M1121.27 873.582C1104.21 871.722 1096.27 875.667 1095.14 878.099C1094.02 880.53 1097.23 886.811 1111.01 895.77C1124.79 904.729 1146.13 914.97 1154.52 907.411C1162.91 899.852 1163.04 888.108 1153.29 881.012C1145.48 875.335 1128.69 873.693 1121.27 873.582ZM1198.5 796C1185.7 793.2 1164.17 801.5 1155 806C1133 814.178 1125.5 824.5 1125.5 828.5C1125.5 832.5 1133 839 1155 842.5C1177 846 1209 846.5 1215 831C1221 815.5 1214.5 799.5 1198.5 796Z" fill="#FFB00D"/>
<path d="M577.515 759.242C594.358 762.566 600.754 768.703 601.102 771.36C601.448 774.017 596.511 779.052 580.68 783.482C564.849 787.913 541.423 791.31 535.678 781.59C529.934 771.871 533.314 760.622 544.745 756.766C553.89 753.681 570.402 757.131 577.515 759.242ZM527 662.127C540.052 663.28 558.121 677.636 565.525 684.669C584.076 699.047 588.149 711.139 586.953 714.956C585.758 718.774 576.658 722.735 554.618 719.502C532.577 716.268 501.89 707.182 500.796 690.598C499.701 674.013 510.686 660.687 527 662.127Z" fill="#FFB00D"/>
<path d="M801.5 1240.5L551.5 1245" stroke="#651AA7" stroke-width="8" stroke-linecap="round"/>
<path d="M840 1211L769.5 1217L707.5 1237H840V1211Z" fill="url(#paint6_linear_2854_156)"/>
<defs>
<linearGradient id="paint0_linear_2854_156" x1="806" y1="698" x2="818.974" y2="1123.5" gradientUnits="userSpaceOnUse">
<stop stop-color="#661AA7"/>
<stop offset="0.692596" stop-color="#170229"/>
<stop offset="1" stop-color="#661AA7"/>
</linearGradient>
<radialGradient id="paint1_radial_2854_156" cx="0" cy="0" r="1" gradientUnits="userSpaceOnUse" gradientTransform="translate(863.184 719.465) rotate(90) scale(246.035)">
<stop stop-color="#FFEE36"/>
<stop offset="1" stop-color="#FF9C00"/>
</radialGradient>
<linearGradient id="paint2_linear_2854_156" x1="828.849" y1="693" x2="828.849" y2="2521.5" gradientUnits="userSpaceOnUse">
<stop offset="0.423773" stop-color="#651AA7"/>
<stop offset="0.659068" stop-color="#170D20"/>
<stop offset="0.709663" stop-color="#100B15"/>
<stop offset="0.857884"/>
</linearGradient>
<linearGradient id="paint3_linear_2854_156" x1="668.5" y1="1503.5" x2="1185.62" y2="1503.5" gradientUnits="userSpaceOnUse">
<stop stop-color="#170D21"/>
<stop offset="1" stop-color="#791BAA"/>
</linearGradient>
<linearGradient id="paint4_linear_2854_156" x1="769.566" y1="2385" x2="769.566" y2="1204.3" gradientUnits="userSpaceOnUse">
<stop/>
<stop offset="0.265975" stop-opacity="0.5"/>
<stop offset="0.6" stop-opacity="0"/>
</linearGradient>
<linearGradient id="paint5_linear_2854_156" x1="1078.3" y1="673.915" x2="834" y2="1731" gradientUnits="userSpaceOnUse">
<stop stop-color="#FFAFE1"/>
<stop offset="1" stop-color="#BB1E81"/>
</linearGradient>
<linearGradient id="paint6_linear_2854_156" x1="840" y1="1223.75" x2="750.5" y2="1223.75" gradientUnits="userSpaceOnUse">
<stop stop-color="#651AA7"/>
<stop offset="1" stop-color="#230F31"/>
</linearGradient>
</defs>
</svg>
