<svg width="1706" height="2522" viewBox="0 0 1706 2522" fill="none" xmlns="http://www.w3.org/2000/svg">
<path d="M856.5 601L791.5 1111L925 1123.5V761C928 672.5 928.7 495.2 907.5 494C886.3 492.8 864.667 564.833 856.5 601Z" fill="url(#paint0_linear_2851_154)"/>
<path d="M745.122 383.858C746.139 376.175 756.393 374.282 760.086 381.095L872.337 588.182C873.988 591.229 877.414 592.866 880.822 592.237L1112.46 549.473C1120.08 548.066 1125.05 557.234 1119.71 562.851L957.448 733.602C955.061 736.114 954.563 739.878 956.214 742.925L1068.47 950.012C1072.16 956.825 1064.98 964.384 1057.98 961.042L845.447 859.485C842.32 857.991 838.587 858.68 836.199 861.192L673.935 1031.94C668.597 1037.56 659.188 1033.06 660.205 1025.38L691.115 791.865C691.57 788.43 689.76 785.092 686.633 783.597L474.098 682.04C467.105 678.699 468.474 668.361 476.095 666.954L707.734 624.191C711.142 623.562 713.757 620.81 714.212 617.374L745.122 383.858Z" fill="url(#paint1_radial_2851_154)"/>
<path d="M1317.5 1623.5C1324.7 1740.3 1252.83 2270.83 1216 2521.5H620.5C638.833 2372.5 677.8 2056.5 687 1984.5C696.2 1912.5 685.5 1879.5 679 1872L382.5 1433.5C378 1422.33 377.4 1398.5 411 1392.5C453 1385 489 1404 528.5 1437.5C568 1471 663 1575 688.5 1585.5C714 1596 733 1572 738.5 1553.5C742.9 1538.7 757 1406.67 763.5 1342.5L647 1328.5C577.8 1318.5 571.833 1269.33 577.5 1246H774L778.5 1208.5C689.501 1203.5 633.9 1197.6 561.5 1188C489.1 1178.4 488 1123.67 496.5 1097.5L918.996 1101.5C884 1047 740.997 823.5 733.997 782C722.391 713.201 759.83 694 779.997 693C862.997 803.5 1046 1045.8 1114 1131C1199 1237.5 1308.5 1477.5 1317.5 1623.5Z" fill="url(#paint2_linear_2851_154)"/>
<path d="M980.5 1658C940.9 1761.2 982.667 1868 1008.5 1908.5L1220.5 2177C1290.67 2148.17 1310.3 1802 1319.5 1722C1331 1622 1324 1506 1284 1407.5C1252 1328.7 1149 1171.5 1091 1100H631C583.166 1096.17 488.5 1097.3 492.5 1132.5C496.5 1167.7 558.5 1186.17 589 1191L909 1217V1245H699C660.166 1242.83 581.7 1244.7 578.5 1269.5C575.3 1294.3 598 1322.5 653 1332L1049 1371L1116.5 1520C1087.67 1523 1020.1 1554.8 980.5 1658Z" fill="url(#paint3_linear_2851_154)"/>
<path d="M980.5 1658C940.9 1761.2 982.667 1868 1008.5 1908.5L1220.5 2177C1290.67 2148.17 1310.3 1802 1319.5 1722C1331 1622 1324 1506 1284 1407.5C1252 1328.7 1149 1171.5 1091 1100H631C583.166 1096.17 488.5 1097.3 492.5 1132.5C496.5 1167.7 558.5 1186.17 589 1191L909 1217V1245H699C660.166 1242.83 581.7 1244.7 578.5 1269.5C575.3 1294.3 598 1322.5 653 1332L1049 1371L1116.5 1520C1087.67 1523 1020.1 1554.8 980.5 1658Z" fill="url(#paint4_linear_2851_154)"/>
<path d="M1112.86 1523.98C1113.5 1523.73 1114.03 1523.25 1114.33 1522.63C1114.62 1522.01 1114.66 1521.3 1114.44 1520.65C1114.21 1520.01 1113.74 1519.47 1113.12 1519.17C1112.5 1518.87 1111.79 1518.82 1111.14 1519.02V1519.02C1102.8 1521.63 1094.81 1525.3 1087.14 1529.43C1019.5 1567.76 966.353 1637.41 958.831 1717.52C958.351 1722.83 958.083 1728.05 958.016 1733.4C956.389 1805.44 972.757 1882.85 1021.54 1937.96C1026.88 1944.64 1032.36 1951.22 1037.35 1957.98C1037.75 1958.53 1038.35 1958.92 1039.03 1959.04C1039.71 1959.16 1040.41 1959.02 1040.97 1958.63C1041.54 1958.24 1041.93 1957.65 1042.06 1956.97C1042.19 1956.3 1042.05 1955.6 1041.68 1955.02C1041.68 1955.02 1041.68 1955.02 1041.68 1955.02C1037.04 1947.73 1031.95 1940.76 1027.06 1933.8C982.821 1876.77 970.389 1804.36 971.984 1733.6C972.066 1728.61 972.326 1723.74 972.774 1718.78C979.658 1644.42 1027.47 1576.56 1090.61 1535.41C1097.73 1530.99 1105.17 1526.98 1112.86 1523.98Z" fill="#4228E8"/>
<path d="M373.001 1376.5C390.001 1376.5 411.001 1391.5 426.501 1409.5C442.001 1427.5 456.501 1451.5 455.001 1477C453.801 1497.4 438.168 1505.17 430.501 1506.5C406.001 1476.5 360.501 1401.5 356.501 1393C352.501 1384.5 356.002 1376.5 373.001 1376.5ZM554.001 1246.5C552.401 1236.9 563.668 1235.83 569.501 1236.5C634.501 1236.5 667.097 1239.16 676.501 1240.5C683.501 1241.5 696.501 1246.5 684.501 1267.5C672.501 1288.5 643.001 1286.5 602.001 1281.5C561.001 1276.5 556.001 1258.5 554.001 1246.5ZM459.001 1101.5C458.201 1091.9 468.001 1091.17 473.001 1092C530.501 1092 590.501 1096.5 596.001 1097C601.501 1097.5 601.001 1104.5 600.501 1110C600.001 1115.5 596.501 1130 578.501 1137.5C560.501 1145 509.501 1138.5 490.501 1133C471.501 1127.5 460.001 1113.5 459.001 1101.5ZM758.001 679C760.501 669 771.001 675.5 779.001 683.5C787.001 691.5 836.001 760.5 841.501 770C845.901 777.6 844.335 782.833 843.001 784.5C819.001 804.5 791.001 786.5 770.501 756C750.001 725.5 755.501 689 758.001 679Z" fill="url(#paint5_linear_2851_154)"/>
<path d="M556.727 873.582C573.794 871.721 581.731 875.667 582.857 878.099C583.981 880.53 580.774 886.81 566.99 895.77C553.207 904.729 531.866 914.97 523.48 907.411C515.094 899.852 514.958 888.108 524.714 881.012C532.519 875.335 549.308 873.693 556.727 873.582ZM479.5 796C492.3 793.2 513.833 801.5 523 806C545 814.177 552.5 824.5 552.5 828.5C552.5 832.5 545 839 523 842.5C501.001 846 469 846.5 463 831C457 815.5 463.5 799.5 479.5 796Z" fill="#FFB00D"/>
<path d="M1100.48 759.242C1083.64 762.566 1077.25 768.703 1076.9 771.36C1076.55 774.017 1081.49 779.052 1097.32 783.482C1113.15 787.913 1136.58 791.31 1142.32 781.59C1148.07 771.871 1144.69 760.622 1133.25 756.766C1124.11 753.681 1107.6 757.131 1100.48 759.242ZM1151 662.127C1137.95 663.28 1119.88 677.636 1112.48 684.669C1093.92 699.047 1089.85 711.139 1091.05 714.956C1092.24 718.774 1101.34 722.735 1123.38 719.502C1145.42 716.268 1176.11 707.182 1177.2 690.598C1178.3 674.013 1167.31 660.687 1151 662.127Z" fill="#FFB00D"/>
<path d="M876.5 1240.5L1126.5 1245" stroke="#4228E8" stroke-width="8" stroke-linecap="round"/>
<path d="M838 1211L908.5 1217L970.5 1237H838V1211Z" fill="url(#paint6_linear_2851_154)"/>
<defs>
<linearGradient id="paint0_linear_2851_154" x1="872" y1="698" x2="859.026" y2="1123.5" gradientUnits="userSpaceOnUse">
<stop stop-color="#4228E8"/>
<stop offset="0.692596" stop-color="#170229"/>
<stop offset="1" stop-color="#4228E8"/>
</linearGradient>
<radialGradient id="paint1_radial_2851_154" cx="0" cy="0" r="1" gradientUnits="userSpaceOnUse" gradientTransform="translate(814.816 719.465) rotate(90) scale(246.035)">
<stop stop-color="#FFEE36"/>
<stop offset="1" stop-color="#FF9C00"/>
</radialGradient>
<linearGradient id="paint2_linear_2851_154" x1="849.151" y1="693" x2="849.151" y2="2521.5" gradientUnits="userSpaceOnUse">
<stop offset="0.423773" stop-color="#4228E8"/>
<stop offset="0.659068" stop-color="#170D20"/>
<stop offset="0.709663" stop-color="#100B15"/>
<stop offset="0.857884"/>
</linearGradient>
<linearGradient id="paint3_linear_2851_154" x1="1009.5" y1="1503.5" x2="492.377" y2="1503.5" gradientUnits="userSpaceOnUse">
<stop stop-color="#170D21"/>
<stop offset="1" stop-color="#4228E8"/>
</linearGradient>
<linearGradient id="paint4_linear_2851_154" x1="908.434" y1="2385" x2="908.434" y2="1204.3" gradientUnits="userSpaceOnUse">
<stop/>
<stop offset="0.265975" stop-opacity="0.5"/>
<stop offset="0.6" stop-opacity="0"/>
</linearGradient>
<linearGradient id="paint5_linear_2851_154" x1="599.701" y1="673.915" x2="844" y2="1731" gradientUnits="userSpaceOnUse">
<stop stop-color="#FFFDE6"/>
<stop offset="1" stop-color="#77FFF6"/>
</linearGradient>
<linearGradient id="paint6_linear_2851_154" x1="838" y1="1223.75" x2="927.5" y2="1223.75" gradientUnits="userSpaceOnUse">
<stop stop-color="#4228E8"/>
<stop offset="1" stop-color="#230F31"/>
</linearGradient>
</defs>
</svg>
